<?xml version="1.0" encoding="iso-8859-1"?>
<!-- Generator: Adobe Illustrator 19.0.0, SVG Export Plug-In . SVG Version: 6.00 Build 0)  -->
<svg version="1.1" id="Capa_1" xmlns="http://www.w3.org/2000/svg" xmlns:xlink="http://www.w3.org/1999/xlink" x="0px" y="0px"
	 viewBox="0 0 512 512" style="enable-background:new 0 0 512 512;" xml:space="preserve">
<g>
	<g>
		<path d="M256,0C114.837,0,0,114.837,0,256s114.837,256,256,256s256-114.837,256-256S397.163,0,256,0z M256,490.667
			c-129.387,0-234.667-105.28-234.667-234.667S126.613,21.333,256,21.333S490.667,126.613,490.667,256S385.387,490.667,256,490.667z
			"/>
	</g>
</g>
<g>
	<g>
		<path d="M256,128c-70.592,0-128,57.408-128,128s57.408,128,128,128s128-57.408,128-128S326.592,128,256,128z M256,362.667
			c-58.816,0-106.667-47.851-106.667-106.667S197.184,149.333,256,149.333S362.667,197.184,362.667,256S314.816,362.667,256,362.667
			z"/>
	</g>
</g>
<g>
	<g>
		<path d="M151.915,212.267l-95.467-95.445c-4.16-4.16-10.923-4.16-15.083,0c-4.16,4.16-4.16,10.923,0,15.083l95.467,95.445
			c2.091,2.069,4.821,3.115,7.552,3.115c2.731,0,5.44-1.045,7.531-3.115C156.075,223.189,156.075,216.427,151.915,212.267z"/>
	</g>
</g>
<g>
	<g>
		<path d="M227.349,136.832l-95.445-95.467c-4.16-4.16-10.923-4.16-15.083,0c-4.16,4.16-4.16,10.923,0,15.083l95.424,95.488
			c2.091,2.069,4.821,3.115,7.552,3.115c2.731,0,5.461-1.045,7.552-3.136C231.509,147.755,231.509,140.992,227.349,136.832z"/>
	</g>
</g>
<g>
	<g>
		<path d="M395.179,455.552l-95.467-95.467c-4.16-4.16-10.923-4.16-15.083,0c-4.16,4.16-4.16,10.923,0,15.083l95.467,95.467
			c2.091,2.069,4.821,3.115,7.552,3.115s5.461-1.045,7.531-3.115C399.339,466.475,399.339,459.712,395.179,455.552z"/>
	</g>
</g>
<g>
	<g>
		<path d="M470.613,380.117l-95.467-95.445c-4.16-4.16-10.923-4.16-15.083,0s-4.16,10.923,0,15.083l95.467,95.445
			c2.091,2.069,4.821,3.115,7.552,3.115s5.461-1.045,7.531-3.115C474.773,391.04,474.773,384.277,470.613,380.117z"/>
	</g>
</g>
<g>
	<g>
		<path d="M151.915,284.672c-4.16-4.16-10.923-4.16-15.083,0l-95.467,95.445c-4.16,4.16-4.16,10.923,0,15.083
			c2.091,2.069,4.821,3.115,7.552,3.115c2.731,0,5.461-1.045,7.531-3.115l95.467-95.445
			C156.075,295.595,156.075,288.832,151.915,284.672z"/>
	</g>
</g>
<g>
	<g>
		<path d="M227.328,360.085c-4.16-4.16-10.923-4.16-15.083,0L116.8,455.552c-4.16,4.16-4.16,10.923,0,15.083
			c2.091,2.069,4.821,3.115,7.552,3.115s5.461-1.045,7.531-3.115l95.445-95.467C231.488,371.008,231.488,364.245,227.328,360.085z"
			/>
	</g>
</g>
<g>
	<g>
		<path d="M395.179,41.387c-4.16-4.16-10.923-4.16-15.083,0l-95.445,95.467c-4.16,4.16-4.16,10.923,0,15.083
			c2.091,2.069,4.821,3.115,7.552,3.115c2.731,0,5.461-1.045,7.531-3.115l95.445-95.467
			C399.339,52.309,399.339,45.547,395.179,41.387z"/>
	</g>
</g>
<g>
	<g>
		<path d="M470.613,116.821c-4.16-4.16-10.923-4.16-15.083,0l-95.467,95.445c-4.16,4.16-4.16,10.923,0,15.083
			c2.091,2.069,4.821,3.115,7.552,3.115s5.461-1.045,7.531-3.115l95.467-95.445C474.773,127.744,474.773,120.981,470.613,116.821z"
			/>
	</g>
</g>
<g>
</g>
<g>
</g>
<g>
</g>
<g>
</g>
<g>
</g>
<g>
</g>
<g>
</g>
<g>
</g>
<g>
</g>
<g>
</g>
<g>
</g>
<g>
</g>
<g>
</g>
<g>
</g>
<g>
</g>
</svg>
