<svg id="Capa_1" enable-background="new 0 0 512 512" height="512" viewBox="0 0 512 512" width="512" xmlns="http://www.w3.org/2000/svg"><g><g><path d="m451.099 153.661h-17.629v-143.661c0-3.919-2.289-7.477-5.855-9.101-3.566-1.625-7.752-1.016-10.709 1.557l-26.483 23.04c-13.822 12.026-28.758 23.154-44.392 33.075-59.367 37.678-127.964 57.593-198.374 57.593h-48.695c-49.06 0-88.975 39.676-88.975 88.444s39.914 88.444 88.975 88.444h23.332v208.948c0 5.522 4.478 10 10 10h57.36c19.777 0 35.868-16.09 35.868-35.867v-41.904h15.148c19.808 0 35.922-16.114 35.922-35.965 0-19.808-16.114-35.922-35.922-35.922h-15.148v-61.041c42.573 9.137 83.349 25.761 120.509 49.344 15.635 9.923 30.57 21.052 44.392 33.075l26.483 23.041c1.856 1.615 4.197 2.456 6.565 2.456 1.403 0 2.816-.295 4.143-.899 3.566-1.624 5.855-5.182 5.855-9.101v-143.66h17.629c28.074 0 50.914-22.84 50.914-50.982.001-28.075-22.839-50.914-50.913-50.914zm-421.111 50.948c0-37.74 30.941-68.444 68.975-68.444h23.332v136.889h-23.333c-38.033-.001-68.974-30.705-68.974-68.445zm210.683 177.733c8.779 0 15.922 7.143 15.922 15.965 0 8.779-7.143 15.922-15.922 15.922h-15.148v-31.887zm-35.148 93.791c0 8.749-7.118 15.867-15.868 15.867h-47.36v-198.947h5.363c19.48 0 38.82 1.525 57.865 4.528zm207.947-98.871-9.92-8.631c-13.202-11.485-27.363-22.192-42.16-31.88v-81.873c0-5.522-4.478-10-10-10s-10 4.478-10 10v69.621c-58.918-33.709-125.519-51.445-193.732-51.445h-5.363v-136.889h5.363c68.215 0 134.815-17.737 193.732-51.446v79.747c0 5.523 4.478 10 10 10s10-4.477 10-10v-91.999c14.796-9.687 28.958-20.394 42.16-31.881l9.92-8.63zm37.629-141.705h-17.629v-61.896h17.629c17.046 0 30.914 13.868 30.914 30.982 0 17.046-13.868 30.914-30.914 30.914z"/><path d="m360.62 206.03c-1.612-3.867-5.565-6.387-9.762-6.16-4.169.226-7.81 3.096-9.032 7.08-1.225 3.992.26 8.453 3.61 10.934 3.262 2.416 7.78 2.603 11.23.462 4.101-2.545 5.81-7.858 3.954-12.316z"/></g></g></svg>