<?xml version="1.0" encoding="iso-8859-1"?>
<!-- Generator: Adobe Illustrator 19.0.0, SVG Export Plug-In . SVG Version: 6.00 Build 0)  -->
<svg version="1.1" id="Capa_1" xmlns="http://www.w3.org/2000/svg" xmlns:xlink="http://www.w3.org/1999/xlink" x="0px" y="0px"
	 viewBox="0 0 512.031 512.031" style="enable-background:new 0 0 512.031 512.031;" xml:space="preserve">
<g>
	<g>
		<path d="M448.016,248.031h-120v-240c0.008-2.105-0.813-4.128-2.287-5.631c-3.093-3.155-8.158-3.206-11.313-0.113l-256,248
			c-1.562,1.514-2.44,3.6-2.432,5.776c0.018,4.418,3.613,7.986,8.032,7.968h120v240c0,4.418,3.582,8,8,8
			c2.09,0.008,4.1-0.802,5.6-2.256l147.36-142.792c0.11-0.101,0.216-0.204,0.32-0.311c3.084-3.164,3.02-8.228-0.143-11.313
			c-3.164-3.084-8.229-3.02-11.313,0.144l-133.824,129.64V256.031c0-4.418-3.582-8-8-8H83.768L312.016,26.919v229.112
			c0,4.418,3.582,8,8,8h108.248l-49.28,47.776c-0.152,0.137-0.299,0.279-0.441,0.427c-3.052,3.195-2.936,8.259,0.258,11.311
			c3.195,3.052,8.259,2.936,11.311-0.258l63.504-61.512c1.562-1.514,2.44-3.6,2.432-5.776
			C456.03,251.581,452.434,248.013,448.016,248.031z"/>
	</g>
</g>
<g>
</g>
<g>
</g>
<g>
</g>
<g>
</g>
<g>
</g>
<g>
</g>
<g>
</g>
<g>
</g>
<g>
</g>
<g>
</g>
<g>
</g>
<g>
</g>
<g>
</g>
<g>
</g>
<g>
</g>
</svg>
